<svg width="136" height="133" viewBox="0 0 136 133" fill="none" xmlns="http://www.w3.org/2000/svg">
<path d="M28.7769 99.4274C37.0945 104.872 39.4235 116.028 33.9788 124.346C28.5342 132.664 17.3777 134.993 9.06016 129.548C0.7426 124.103 -1.58636 112.947 3.85828 104.629C9.30292 96.3117 20.4594 93.9827 28.7769 99.4274Z" fill="#C2C7CC"/>
<path d="M67.8893 3.85852C76.2068 9.30316 78.5358 20.4596 73.0911 28.7772C67.6465 37.0948 56.49 39.4237 48.1725 33.9791C39.8549 28.5344 37.5259 17.378 42.9706 9.06041C48.4152 0.742845 59.5717 -1.58612 67.8893 3.85852Z" fill="#C2C7CC"/>
<path d="M127.777 62.8585C136.095 68.3032 138.423 79.4596 132.979 87.7772C127.534 96.0948 116.378 98.4237 108.06 92.9791C99.7426 87.5344 97.4136 76.378 102.858 68.0604C108.303 59.7428 119.459 57.4139 127.777 62.8585Z" fill="#C2C7CC"/>
<path d="M29.083 89.1925C25.2331 87.6643 23.3511 83.3044 24.8793 79.4545L36.5831 49.971C38.1114 46.1211 42.4712 44.239 46.3211 45.7673C50.171 47.2955 52.0531 51.6554 50.5248 55.5053L38.8211 84.9888C37.2928 88.8387 32.9329 90.7208 29.083 89.1925Z" fill="#C2C7CC"/>
<path d="M98.2112 57.5671C95.3375 60.5503 90.5896 60.639 87.6064 57.7654L78.5137 49.0064C75.5305 46.1327 75.4417 41.3848 78.3154 38.4016C81.1891 35.4185 85.937 35.3297 88.9201 38.2034L98.0129 46.9623C100.996 49.836 101.085 54.5839 98.2112 57.5671Z" fill="#C2C7CC"/>
</svg>
