<svg width="18" height="18" viewBox="0 0 18 18" fill="none" xmlns="http://www.w3.org/2000/svg">
<path d="M7.32996 12.75L12.33 8.99999L7.32996 5.24999V12.75ZM9 0.666687C4.4 0.666687 0.670044 4.39999 0.670044 8.99999C0.670044 13.6 4.4 17.3333 9 17.3333C13.6 17.3333 17.33 13.6 17.33 8.99999C17.33 4.39999 13.6 0.666687 9 0.666687ZM9 15.6667C5.33 15.6667 2.32996 12.675 2.32996 8.99999C2.32996 5.32499 5.33 2.33329 9 2.33329C12.68 2.33329 15.67 5.32499 15.67 8.99999C15.67 12.675 12.68 15.6667 9 15.6667Z" fill="#90BAAE"/>
</svg>
