<svg width="21" height="14" viewBox="0 0 21 14" fill="none" xmlns="http://www.w3.org/2000/svg">
<path d="M2 3.5C2.8284 3.5 3.5 2.828 3.5 2C3.5 1.172 2.8284 0.5 2 0.5C1.1716 0.5 0.5 1.172 0.5 2C0.5 2.828 1.1716 3.5 2 3.5Z" fill="#707880"/>
<path d="M17 13.914L13.7929 10.707L15.2071 9.29303L16 10.086V1H18V10.086L18.7929 9.29303L20.2071 10.707L17 13.914Z" fill="#707880"/>
<path d="M14 1H5V3H14V1Z" fill="#707880"/>
<path d="M5 6H14V8H5V6Z" fill="#707880"/>
<path d="M5 11H12V13H5V11Z" fill="#707880"/>
<path d="M3.5 7C3.5 7.828 2.8284 8.5 2 8.5C1.1716 8.5 0.5 7.828 0.5 7C0.5 6.172 1.1716 5.5 2 5.5C2.8284 5.5 3.5 6.172 3.5 7Z" fill="#707880"/>
<path d="M2 13.5C2.8284 13.5 3.5 12.828 3.5 12C3.5 11.172 2.8284 10.5 2 10.5C1.1716 10.5 0.5 11.172 0.5 12C0.5 12.828 1.1716 13.5 2 13.5Z" fill="#707880"/>
</svg>
