<svg width="4" height="14" viewBox="0 0 4 14" fill="none" xmlns="http://www.w3.org/2000/svg">
<path d="M2 3.66671C2.92 3.66671 3.67004 2.91671 3.67004 2.00001C3.67004 1.08331 2.92 0.333313 2 0.333313C1.08 0.333313 0.329956 1.08331 0.329956 2.00001C0.329956 2.91671 1.08 3.66671 2 3.66671ZM2 5.33331C1.08 5.33331 0.329956 6.08331 0.329956 7.00001C0.329956 7.91671 1.08 8.66671 2 8.66671C2.92 8.66671 3.67004 7.91671 3.67004 7.00001C3.67004 6.08331 2.92 5.33331 2 5.33331ZM2 10.3333C1.08 10.3333 0.329956 11.0833 0.329956 12C0.329956 12.9167 1.08 13.6667 2 13.6667C2.92 13.6667 3.67004 12.9167 3.67004 12C3.67004 11.0833 2.92 10.3333 2 10.3333Z" fill="#90BAAE"/>
</svg>
