<svg width="32" height="32" viewBox="0 0 32 32" fill="none" xmlns="http://www.w3.org/2000/svg">
<path d="M13.6056 2.08905L15.1912 0.503515C15.8625 -0.167838 16.9481 -0.167838 17.6123 0.503515L31.4965 14.3805C32.1678 15.0519 32.1678 16.1375 31.4965 16.8017L17.6123 30.6859C16.941 31.3572 15.8554 31.3572 15.1912 30.6859L13.6056 29.1003C12.9271 28.4218 12.9414 27.3148 13.6342 26.6506L22.2404 18.4515H1.71409C0.7642 18.4515 0 17.6873 0 16.7374V14.452C0 13.5021 0.7642 12.7379 1.71409 12.7379H22.2404L13.6342 4.53878C12.9343 3.87457 12.92 2.76755 13.6056 2.08905Z" fill="white"/>
</svg>
