<svg width="20" height="20" viewBox="0 0 20 20" fill="none" xmlns="http://www.w3.org/2000/svg">
<path fill-rule="evenodd" clip-rule="evenodd" d="M10.5547 0.168C10.2188 -0.056 9.7812 -0.056 9.4453 0.168L0.445299 6.168C0.167099 6.353 0 6.66597 0 6.99997C0 7.33397 0.167099 7.64694 0.445299 7.83194L3.6972 9.99997L0.445299 12.168C0.167099 12.353 0 12.666 0 13C0 13.334 0.167099 13.6469 0.445299 13.8319L9.4453 19.8319C9.7812 20.0559 10.2188 20.0559 10.5547 19.8319L19.5547 13.8319C19.8329 13.6469 20 13.334 20 13C20 12.666 19.8329 12.353 19.5547 12.168L16.3028 9.99997L19.5547 7.83194C19.8329 7.64694 20 7.33397 20 6.99997C20 6.66597 19.8329 6.353 19.5547 6.168L10.5547 0.168ZM14.5 11.202L10.5547 13.8319C10.2188 14.0559 9.7812 14.0559 9.4453 13.8319L5.5 11.202L2.8028 13L10 17.7979L17.1972 13L14.5 11.202ZM10 11.7979L2.8028 6.99997L10 2.202L17.1972 6.99997L10 11.7979Z" fill="#707880"/>
</svg>
